<mxfile host="Electron" modified="2023-11-30T13:55:44.569Z" agent="Mozilla/5.0 (Windows NT 10.0; Win64; x64) AppleWebKit/537.36 (KHTML, like Gecko) draw.io/21.6.8 Chrome/114.0.5735.289 Electron/25.5.0 Safari/537.36" etag="XbHXVBWXUhLP45cwF370" version="21.6.8" type="device">
  <diagram name="Page-1" id="s7ENcRqOJsYTqNCO3zsO">
    <mxGraphModel dx="1036" dy="2952" grid="1" gridSize="10" guides="1" tooltips="1" connect="1" arrows="1" fold="1" page="1" pageScale="1" pageWidth="827" pageHeight="1169" math="0" shadow="0">
      <root>
        <mxCell id="0" />
        <mxCell id="1" parent="0" />
        <mxCell id="yRUf9AnvGRdpySwF5_WJ-2" value="SubstanceDefinition&lt;br&gt;&lt;i style=&quot;border-color: var(--border-color);&quot;&gt;Stelbatolol&lt;br&gt;&lt;br&gt;&lt;br&gt;&lt;br&gt;&lt;br&gt;&lt;br&gt;&lt;br&gt;&lt;br&gt;&lt;br&gt;&lt;br&gt;&lt;/i&gt;" style="rounded=1;whiteSpace=wrap;html=1;fontSize=12;glass=0;strokeWidth=1;shadow=0;fillColor=#c1f0da;strokeColor=#9ebda2;" parent="1" vertex="1">
          <mxGeometry x="80" y="-2280" width="160" height="170" as="geometry" />
        </mxCell>
        <mxCell id="yRUf9AnvGRdpySwF5_WJ-5" style="edgeStyle=orthogonalEdgeStyle;rounded=0;orthogonalLoop=1;jettySize=auto;html=1;exitX=0.5;exitY=1;exitDx=0;exitDy=0;" parent="1" edge="1">
          <mxGeometry relative="1" as="geometry">
            <mxPoint x="410" y="-2260" as="sourcePoint" />
            <mxPoint x="410" y="-2260" as="targetPoint" />
          </mxGeometry>
        </mxCell>
        <mxCell id="yRUf9AnvGRdpySwF5_WJ-8" style="edgeStyle=orthogonalEdgeStyle;rounded=0;orthogonalLoop=1;jettySize=auto;html=1;exitX=0.5;exitY=1;exitDx=0;exitDy=0;" parent="1" edge="1">
          <mxGeometry relative="1" as="geometry">
            <mxPoint x="410" y="-2260" as="sourcePoint" />
            <mxPoint x="410" y="-2260" as="targetPoint" />
          </mxGeometry>
        </mxCell>
        <mxCell id="yRUf9AnvGRdpySwF5_WJ-14" style="edgeStyle=orthogonalEdgeStyle;rounded=0;orthogonalLoop=1;jettySize=auto;html=1;exitX=0.5;exitY=1;exitDx=0;exitDy=0;" parent="1" edge="1">
          <mxGeometry relative="1" as="geometry">
            <mxPoint x="410" y="-2260" as="sourcePoint" />
            <mxPoint x="410" y="-2260" as="targetPoint" />
          </mxGeometry>
        </mxCell>
        <mxCell id="EBuLOwLJDxHHWRLI__QH-1" value="&lt;span style=&quot;border-color: var(--border-color);&quot;&gt;Property&lt;br&gt;&lt;i&gt;Appearance&lt;br&gt;&lt;/i&gt;&lt;/span&gt;" style="rounded=1;whiteSpace=wrap;html=1;fontSize=12;glass=0;strokeWidth=1;shadow=0;fillColor=#c1f0da;strokeColor=#9ebda2;" vertex="1" parent="1">
          <mxGeometry x="90" y="-2240" width="140" height="40" as="geometry" />
        </mxCell>
        <mxCell id="EBuLOwLJDxHHWRLI__QH-2" value="&lt;span style=&quot;border-color: var(--border-color);&quot;&gt;Property&lt;br&gt;&lt;i&gt;Stereochemistry&lt;br&gt;&lt;/i&gt;&lt;/span&gt;" style="rounded=1;whiteSpace=wrap;html=1;fontSize=12;glass=0;strokeWidth=1;shadow=0;fillColor=#c1f0da;strokeColor=#9ebda2;" vertex="1" parent="1">
          <mxGeometry x="90" y="-2160" width="140" height="40" as="geometry" />
        </mxCell>
        <mxCell id="EBuLOwLJDxHHWRLI__QH-3" value="&lt;span style=&quot;border-color: var(--border-color);&quot;&gt;Property&lt;br&gt;&lt;i&gt;Solubility&lt;br&gt;&lt;/i&gt;&lt;/span&gt;" style="rounded=1;whiteSpace=wrap;html=1;fontSize=12;glass=0;strokeWidth=1;shadow=0;fillColor=#c1f0da;strokeColor=#9ebda2;" vertex="1" parent="1">
          <mxGeometry x="90" y="-2200" width="140" height="40" as="geometry" />
        </mxCell>
      </root>
    </mxGraphModel>
  </diagram>
</mxfile>
